<svg width="20" height="20" viewBox="0 0 20 20" fill="none" xmlns="http://www.w3.org/2000/svg">
<g id="schedule_24px">
<path id="icon/action/schedule_24px" fill-rule="evenodd" clip-rule="evenodd" d="M9.99187 1.66669C5.39187 1.66669 1.66687 5.40002 1.66687 10C1.66687 14.6 5.39187 18.3334 9.99187 18.3334C14.6002 18.3334 18.3335 14.6 18.3335 10C18.3335 5.40002 14.6002 1.66669 9.99187 1.66669ZM10.0004 16.6667C6.31703 16.6667 3.3337 13.6834 3.3337 10C3.3337 6.31669 6.31703 3.33335 10.0004 3.33335C13.6837 3.33335 16.667 6.31669 16.667 10C16.667 13.6834 13.6837 16.6667 10.0004 16.6667ZM9.16687 5.83335H10.4169V10.2084L14.1669 12.4334L13.5419 13.4584L9.16687 10.8334V5.83335Z" fill="#4F4F4F"/>
</g>
</svg>
